<?xml version="1.0" encoding="UTF-8"?>
<svg width="1072px" height="1064px" viewBox="0 0 1072 1064" version="1.1" xmlns="http://www.w3.org/2000/svg" xmlns:xlink="http://www.w3.org/1999/xlink">
    <defs>
        <radialGradient cx="51.5474183%" cy="60.7268983%" fx="51.5474183%" fy="60.7268983%" r="25.9456318%" gradientTransform="translate(0.515474,0.607269),scale(0.992617,1.000000),rotate(89.999996),translate(-0.515474,-0.607269)" id="radialGradient-1">
            <stop stop-color="#FFDDD9" offset="0%"></stop>
            <stop stop-color="#EF3D29" offset="100%"></stop>
        </radialGradient>
    </defs>
    <g id="龙信页" stroke="none" stroke-width="1" fill="none" fill-rule="evenodd" opacity="0.0276268116">
        <path d="M517.878235,462.468363 L510.170429,0 L561.170429,0 L553.462623,462.468363 L763.914656,50.2365318 L808.944984,74.1795816 L581.938681,484.472104 L961.444816,209.201503 L990.697214,250.978257 L607.122048,510.143075 L1065.12552,446.142958 L1071.34086,496.762811 L611.302071,545.48146 L1046.0362,704.099888 L1027.75943,751.71249 L592.788286,576.371407 L912.203855,919.44439 L874.303469,953.570051 L570.274188,604.380603 L689.593302,1051.09364 L640.10822,1063.43166 L535.670429,612.683028 L431.232638,1063.43166 L381.747556,1051.09364 L501.06667,604.380603 L197.03739,953.570051 L159.137004,919.44439 L478.552573,576.371407 L43.581428,751.71249 L25.3046626,704.099888 L460.038787,545.48146 L0,496.762811 L6.21533651,446.142958 L464.21881,510.143075 L80.6436437,250.978257 L109.896042,209.201503 L489.402177,484.472104 L262.395874,74.1795816 L307.426202,50.2365318 L517.878235,462.468363 Z" id="Rectangle-3" fill="url(#radialGradient-1)"></path>
    </g>
</svg>